<?xml version="1.0" encoding="UTF-8"?>
<svg xmlns="http://www.w3.org/2000/svg" xmlns:xlink="http://www.w3.org/1999/xlink" width="100px" height="100px" viewBox="0 0 100 100" version="1.1">
<g id="surface1">
    <rect width="100" height="100" rx="10" fill="white"/>
    <path style=" stroke:none;fill-rule:nonzero;fill:rgb(0%,0%,0%);fill-opacity:1;" d="M 42.035156 13.910156 C 52.269531 13.523438 62.230469 16.679688 69.929688 23.492188 C 70.335938 23.867188 70.742188 24.246094 71.144531 24.625 C 71.339844 24.804688 71.535156 24.980469 71.738281 25.164062 C 79.199219 32.179688 83.308594 42.925781 83.8125 52.988281 C 84.042969 62.125 80.386719 70.917969 74.183594 77.535156 C 74 77.722656 73.820312 77.914062 73.632812 78.109375 C 73.367188 78.402344 73.367188 78.402344 73.097656 78.699219 C 66.539062 85.683594 55.640625 90.257812 46.125 90.597656 C 45.085938 90.625 44.046875 90.628906 43.007812 90.625 C 42.371094 90.625 41.734375 90.628906 41.097656 90.636719 C 30.6875 90.675781 21.21875 86.707031 13.679688 79.601562 C 13.5 79.433594 13.316406 79.269531 13.125 79.097656 C 8.15625 74.390625 5.085938 67.765625 3.484375 61.195312 C 3.441406 61.03125 3.402344 60.867188 3.359375 60.695312 C 1.988281 54.914062 2.105469 47.738281 3.730469 42.039062 C 3.785156 41.847656 3.839844 41.65625 3.894531 41.457031 C 5.308594 36.492188 7.808594 31.765625 11.195312 27.859375 C 11.304688 27.734375 11.410156 27.609375 11.523438 27.480469 C 18.710938 19.265625 28.953125 14.933594 39.722656 14.023438 C 40.492188 13.976562 41.265625 13.941406 42.035156 13.910156 Z M 32.449219 33.046875 C 29.261719 37.777344 29.761719 43.109375 30.78125 48.476562 C 31.640625 52.738281 32.742188 56.894531 34.328125 60.945312 C 34.402344 61.136719 34.476562 61.328125 34.554688 61.527344 C 36.519531 66.441406 39.609375 72.1875 44.6875 74.417969 C 46.914062 75.152344 48.828125 75.019531 50.996094 74.128906 C 53.394531 72.890625 54.867188 70.953125 55.722656 68.40625 C 58.296875 59.132812 54.324219 46.703125 49.75 38.558594 C 47.675781 34.925781 45.132812 31.5 41.015625 30.113281 C 37.757812 29.285156 34.558594 30.402344 32.449219 33.046875 Z M 32.449219 33.046875 "/>
    <path style=" stroke:none;fill-rule:nonzero;fill:rgb(87.843138%,38.82353%,16.862746%);fill-opacity:1;" d="M 93.933594 72.675781 C 95.851562 74.15625 97.15625 76.269531 97.761719 78.605469 C 98.128906 81.699219 97.496094 84.285156 95.695312 86.816406 C 93.964844 88.859375 91.367188 90.0625 88.738281 90.363281 C 86.042969 90.492188 83.394531 89.546875 81.34375 87.8125 C 79.355469 85.980469 78.234375 83.707031 78.109375 81 C 78.113281 78.03125 79.101562 75.695312 81.125 73.492188 C 84.648438 70.082031 89.960938 70.136719 93.933594 72.675781 Z M 93.933594 72.675781 "/>
</g>
</svg>
